<svg id="Layer_1" data-name="Layer 1" xmlns="http://www.w3.org/2000/svg" viewBox="0 0 83 40"><defs><style>.cls-1{opacity:0.2;}.cls-2{fill:none;stroke:#c65c5c;stroke-miterlimit:10;stroke-width:2.5px;}</style></defs><path d="M43.56,22.34l1.91,6.6c.34,1.2.59,2.32.81,3.45h.1c.21-1.17.46-2.23.78-3.45L49,22.34h4.64l-5.28,14.2H43.93l-5.16-14.2Z"/><path d="M69,32c0,1.84,0,3.37.11,4.55H65.3l-.21-2H65a5,5,0,0,1-4.42,2.33c-2.89,0-5-1.81-5-6.17V22.34H60V30c0,2.08.67,3.32,2.22,3.32a2.36,2.36,0,0,0,2.2-1.55,2.47,2.47,0,0,0,.16-.94V22.34H69Z"/><rect class="cls-1" x="30.61" y="4.06" width="0.94" height="13.5" transform="translate(10.31 -14.71) rotate(31.69)"/><rect class="cls-1" x="19.2" y="5.37" width="1.13" height="29.92"/><path class="cls-2" d="M24.91,14.37l5.51-8.9S31.2,3.76,34,3.93h2.9l-9,14.6Z"/><path class="cls-2" d="M16.05,3.92V35.61h2.29s2.64.41,2.71-3.3V6.53S21.53,4.24,16.05,3.92Z"/><path class="cls-2" d="M27.81,18.53,39.05,35.3l-3.73,0A5.64,5.64,0,0,1,31.43,33C30,31,23.12,21,23.12,21l-2.24-3.62"/></svg>